<svg width="42" height="35" viewBox="0 0 42 35" fill="none" xmlns="http://www.w3.org/2000/svg">
<path fill-rule="evenodd" clip-rule="evenodd" d="M19.373 1.41127C18.2151 2.18703 15.9724 3.70487 14.3894 4.78425C12.8063 5.86363 10.3773 7.51949 8.99173 8.46395C6.55621 10.124 5.91626 10.564 1.87441 13.3573L0 14.6527V15.2159V15.779L1.88952 15.8012L3.77904 15.8234V25.3906V34.9578L9.35194 34.9789L14.9248 35V31.2915C14.9248 29.2518 14.9525 27.1966 14.9862 26.7244L15.0478 25.8659L17.8285 25.8155C19.3578 25.7878 20.6298 25.7829 20.6551 25.8045C20.6805 25.8262 20.7202 27.9037 20.7434 30.4213L20.7857 34.9987H30.0531H39.3204L39.3447 25.411L39.369 15.8234L40.6845 15.8006L42 15.7779V15.1837V14.5895L40.9237 13.7725C40.3318 13.323 39.3123 12.5703 38.6584 12.0997C38.0044 11.6291 36.9711 10.8762 36.3622 10.4265C35.7533 9.97672 34.9861 9.41192 34.6572 9.17135L34.0592 8.73396V5.03357V1.33318L33.2699 1.28068C32.8358 1.25181 31.4582 1.22794 30.2084 1.22769L27.9362 1.2272V2.6582C27.9362 3.60641 27.9022 4.08919 27.8354 4.08919C27.78 4.08919 27.2095 3.69227 26.5677 3.20721C24.2936 1.4883 22.5554 0.242103 22.2261 0.0943423C21.7265 -0.129711 21.5549 -0.0504744 19.373 1.41127ZM20.4231 3.7841C19.6849 4.2892 17.7475 5.62444 16.1179 6.75133C14.4883 7.87822 11.9279 9.6417 10.4282 10.6701C8.92859 11.6986 7.10077 12.9659 6.36649 13.4866L5.03149 14.4332L5.95989 14.4566L6.88838 14.48V23.4719V32.4638H7.47734H8.0662L8.02382 26.1878C8.00047 22.7361 8.00459 18.6443 8.03281 17.095L8.08428 14.278L8.99977 13.6197C12.3135 11.2367 21.495 4.9069 21.6377 4.9069C21.7527 4.9069 23.5396 6.18531 27.4579 9.07094C28.1506 9.58111 29.717 10.7148 30.8872 11.5529C31.4036 11.9228 32.479 12.6977 33.2771 13.275L34.7281 14.3245L34.7525 23.4146L34.7768 32.5047L35.6139 32.5283L36.451 32.5519V23.513V14.4741L37.1925 14.4725L37.9339 14.4709L37.4046 14.0432C36.6807 13.4584 34.9435 12.1613 32.7249 10.5491C31.7037 9.80704 30.1116 8.64638 29.1869 7.96997C27.1654 6.49106 23.0982 3.59546 22.4433 3.16886C22.1847 3.00041 21.9264 2.86336 21.8693 2.86418C21.8122 2.86508 21.1614 3.279 20.4231 3.7841ZM19.6367 16.0915L18.369 16.1143V18.933V21.7518H21.8132H25.2574V18.8876V16.0235L23.0809 16.0461C21.8838 16.0585 20.3338 16.079 19.6367 16.0915ZM25.6377 22.1811C25.6364 22.1923 25.6116 23.333 25.5825 24.716L25.5297 27.2304H28.5986H31.6674V24.6955V22.1606H28.6538C26.9962 22.1606 25.639 22.1699 25.6377 22.1811Z" fill="white"/>
</svg>
