<svg width="20" height="23" viewBox="0 0 20 23" fill="none" xmlns="http://www.w3.org/2000/svg">
<path d="M6.80255 21.5995V18.0725C6.80254 17.1788 7.44959 16.4527 8.25107 16.4471H11.194C11.999 16.4471 12.6516 17.1748 12.6516 18.0725V21.5892C12.6516 22.3644 13.2125 22.9943 13.9077 22.9999H15.9154C16.8531 23.0027 17.7533 22.5892 18.4171 21.8509C19.0811 21.1124 19.4542 20.1098 19.4542 19.0641V9.04573C19.4542 8.2011 19.1185 7.39993 18.5374 6.85803L11.7166 0.77541C10.5242 -0.288509 8.82133 -0.254141 7.66434 0.857192L0.990129 6.85803C0.381652 7.38395 0.0179718 8.1875 0 9.04573V19.054C0 21.2333 1.58437 22.9999 3.5388 22.9999H5.50072C5.83541 23.0027 6.15724 22.8563 6.39477 22.5934C6.63231 22.3305 6.7659 21.9726 6.76589 21.5995H6.80255Z" fill="#52D1C6"/>
</svg>
