<svg width="30" height="30" viewBox="0 0 30 30" fill="none" xmlns="http://www.w3.org/2000/svg">
<path fill-rule="evenodd" clip-rule="evenodd" d="M15.5582 5.1915C15.2299 4.93617 14.7702 4.93617 14.442 5.1915L6.26014 11.5551C6.0387 11.7274 5.90918 11.9922 5.90918 12.2727V22.2727C5.90918 22.996 6.19652 23.6897 6.70798 24.2012C7.21944 24.7127 7.91313 25 8.63645 25H13.1819H16.8183H21.3637C22.087 25 22.7807 24.7127 23.2922 24.2012C23.8037 23.6897 24.091 22.996 24.091 22.2727V12.2727C24.091 11.9922 23.9615 11.7274 23.74 11.5551L15.5582 5.1915ZM13.1819 25H16.8183V15.9091H13.1819V25Z" fill="black"/>
<path fill-rule="evenodd" clip-rule="evenodd" d="M15.5525 5.28968C15.2275 5.0369 14.7725 5.0369 14.4475 5.28968L6.34745 11.5897C6.12823 11.7602 6 12.0224 6 12.3001V22.2001C6 22.9162 6.28446 23.6029 6.79081 24.1093C7.29716 24.6156 7.98391 24.9001 8.7 24.9001H13.2H16.8H21.3C22.0161 24.9001 22.7028 24.6156 23.2092 24.1093C23.7155 23.6029 24 22.9162 24 22.2001V12.3001C24 12.0224 23.8718 11.7602 23.6525 11.5897L15.5525 5.28968ZM18.6 23.1001H21.3C21.5387 23.1001 21.7676 23.0053 21.9364 22.8365C22.1052 22.6677 22.2 22.4388 22.2 22.2001V12.7403L15 7.14027L7.8 12.7403V22.2001C7.8 22.4388 7.89482 22.6677 8.0636 22.8365C8.23239 23.0053 8.46131 23.1001 8.7 23.1001H11.4V15.9001C11.4 14.906 12.2059 14.1001 13.2 14.1001H16.8C17.7941 14.1001 18.6 14.906 18.6 15.9001V23.1001ZM13.2 24.9001H16.8V15.9001H13.2V24.9001Z" fill="black"/>
</svg>
