<svg width="30" height="30" viewBox="0 0 30 30" fill="none" xmlns="http://www.w3.org/2000/svg">
<path fill-rule="evenodd" clip-rule="evenodd" d="M17.6135 6.66672C18.3062 6.37968 19.0487 6.23193 19.7986 6.23193C20.5485 6.23193 21.291 6.37968 21.9838 6.66672C22.6764 6.95372 23.3057 7.37434 23.8358 7.90457C24.366 8.43462 24.7869 9.06423 25.0739 9.75686C25.361 10.4496 25.5087 11.1921 25.5087 11.942C25.5087 12.6919 25.361 13.4344 25.0739 14.1272C24.7869 14.8199 24.3662 15.4492 23.8359 15.9793L16.0724 23.7429C15.7294 24.0859 15.1734 24.0859 14.8304 23.7429L7.06684 15.9793C5.99608 14.9086 5.39453 13.4563 5.39453 11.942C5.39453 10.4277 5.99608 8.97547 7.06684 7.90471C8.1376 6.83395 9.58987 6.2324 11.1042 6.2324C12.6184 6.2324 14.0707 6.83395 15.1415 7.90471L15.4514 8.21463L15.7612 7.90486C16.2913 7.37456 16.9208 6.95374 17.6135 6.66672Z" fill="black"/>
<path fill-rule="evenodd" clip-rule="evenodd" d="M17.6133 6.66648C18.3061 6.37943 19.0486 6.23169 19.7985 6.23169C20.5483 6.23169 21.2909 6.37943 21.9836 6.66648C22.6763 6.95348 23.3056 7.3741 23.8357 7.90433C24.3659 8.43439 24.7868 9.064 25.0738 9.75664C25.3608 10.4494 25.5086 11.1919 25.5086 11.9418C25.5086 12.6917 25.3608 13.4342 25.0738 14.127C24.7868 14.8197 24.3661 15.4491 23.8358 15.9792C23.8358 15.9792 23.8358 15.9791 23.8358 15.9792L16.0722 23.7427C15.7292 24.0857 15.1732 24.0857 14.8302 23.7427L7.06661 15.9792C5.99584 14.9084 5.39429 13.4561 5.39429 11.9418C5.39429 10.4275 5.99584 8.97525 7.06661 7.90448C8.13737 6.83371 9.58965 6.23216 11.1039 6.23216C12.6182 6.23216 14.0705 6.83371 15.1413 7.90448L15.4512 8.2144L15.761 7.90462C15.7609 7.90467 15.761 7.90458 15.761 7.90462C16.2911 7.37432 16.9206 6.9535 17.6133 6.66648ZM19.7985 7.98816C19.2793 7.98816 18.7653 8.09044 18.2856 8.28917C17.806 8.48789 17.3703 8.77916 17.0033 9.14634L16.0722 10.0774C15.7292 10.4204 15.1732 10.4204 14.8302 10.0774L13.8993 9.14649C13.1579 8.40512 12.1524 7.98863 11.1039 7.98863C10.0555 7.98863 9.04998 8.40512 8.30862 9.14649C7.56725 9.88786 7.15076 10.8934 7.15076 11.9418C7.15076 12.9903 7.56725 13.9958 8.30862 14.7371L15.4512 21.8797L22.5938 14.7371C22.961 14.3701 23.2524 13.9342 23.4511 13.4546C23.6498 12.975 23.7521 12.461 23.7521 11.9418C23.7521 11.4227 23.6498 10.9086 23.4511 10.429C23.2524 9.94939 22.9611 9.51364 22.5939 9.14664C22.2269 8.77946 21.7909 8.48789 21.3113 8.28917C20.8317 8.09044 20.3176 7.98816 19.7985 7.98816Z" fill="black"/>
</svg>
