<svg width="30" height="30" viewBox="0 0 30 30" fill="none" xmlns="http://www.w3.org/2000/svg">
<path d="M19.9013 5C19.1131 5 18.3327 5.15529 17.6045 5.45699C16.8764 5.75868 16.2148 6.20094 15.6577 6.75836L14.9513 7.46472L14.2448 6.75827C13.1194 5.63281 11.5929 5.00053 10.0013 5.00053C8.40965 5.00053 6.8832 5.63281 5.75774 6.75827C4.63228 7.88373 4 9.41018 4 11.0018C4 12.5935 4.63228 14.1199 5.75774 15.2454L14.5977 24.0854C14.793 24.2806 15.1096 24.2806 15.3048 24.0854L24.1448 15.2454C24.7023 14.6882 25.1444 14.0267 25.4461 13.2986C25.7478 12.5704 25.9031 11.79 25.9031 11.0018C25.9031 10.2137 25.7478 9.43321 25.4461 8.70507C25.1444 7.97701 24.7021 7.31534 24.1448 6.75819C23.5876 6.20082 22.9261 5.75867 22.198 5.45699C21.4699 5.15529 20.6895 5 19.9013 5Z" fill="#F55555"/>
</svg>
