<svg width="30" height="30" viewBox="0 0 30 30" fill="none" xmlns="http://www.w3.org/2000/svg">
<path fill-rule="evenodd" clip-rule="evenodd" d="M19.9013 6C19.2445 6 18.5941 6.12941 17.9873 6.38083C17.3806 6.63223 16.8292 7.00079 16.3649 7.46531L15.6584 8.17183C15.2679 8.56235 14.6347 8.56235 14.2442 8.17183L13.5377 7.46538C12.5998 6.52746 11.3277 6.00053 10.0013 6.00053C8.67487 6.00053 7.40277 6.52746 6.46484 7.46538C5.52692 8.4033 5 9.6754 5 11.0018C5 12.3283 5.52692 13.6003 6.46484 14.5383L14.9513 23.0247L23.4377 14.5383C23.9022 14.074 24.2709 13.5225 24.5223 12.9158C24.7737 12.309 24.9031 11.6586 24.9031 11.0018C24.9031 10.345 24.7737 9.69465 24.5223 9.08787C24.2709 8.48118 23.9023 7.92976 23.4378 7.46544C22.9735 7.00096 22.422 6.63222 21.8153 6.38083C21.2085 6.12941 20.5581 6 19.9013 6ZM17.2217 4.53316C18.0712 4.18117 18.9818 4 19.9013 4C20.8208 4 21.7313 4.18117 22.5808 4.53316C23.4301 4.88506 24.2018 5.40081 24.8517 6.05094C25.502 6.70093 26.018 7.47284 26.37 8.32228C26.7219 9.17177 26.9031 10.0823 26.9031 11.0018C26.9031 11.9214 26.7219 12.8319 26.37 13.6814C26.018 14.5308 25.5022 15.3025 24.852 15.9525C24.8519 15.9525 24.852 15.9524 24.852 15.9525L16.012 24.7925C15.4262 25.3783 14.4764 25.3783 13.8906 24.7925L5.05063 15.9525C3.73763 14.6395 3 12.8587 3 11.0018C3 9.14497 3.73763 7.36416 5.05063 6.05117C6.36363 4.73817 8.14443 4.00053 10.0013 4.00053C11.8578 4.00053 13.6384 4.73792 14.9513 6.05051C15.6011 5.40063 16.3727 4.88497 17.2217 4.53316Z" fill="black"/>
</svg>
