<svg width="24" height="24" viewBox="0 0 24 24" fill="none" xmlns="http://www.w3.org/2000/svg">
<path fill-rule="evenodd" clip-rule="evenodd" d="M15.7158 16.9737H8.49585C8.08185 16.9737 7.74585 16.6377 7.74585 16.2237C7.74585 15.8097 8.08185 15.4737 8.49585 15.4737H15.7158C16.1298 15.4737 16.4658 15.8097 16.4658 16.2237C16.4658 16.6377 16.1298 16.9737 15.7158 16.9737Z" fill="#52D1C6"/>
<path fill-rule="evenodd" clip-rule="evenodd" d="M15.7158 12.7872H8.49585C8.08185 12.7872 7.74585 12.4512 7.74585 12.0372C7.74585 11.6232 8.08185 11.2872 8.49585 11.2872H15.7158C16.1298 11.2872 16.4658 11.6232 16.4658 12.0372C16.4658 12.4512 16.1298 12.7872 15.7158 12.7872Z" fill="#52D1C6"/>
<path fill-rule="evenodd" clip-rule="evenodd" d="M11.2506 8.61041H8.49561C8.08161 8.61041 7.74561 8.27441 7.74561 7.86041C7.74561 7.44641 8.08161 7.11041 8.49561 7.11041H11.2506C11.6646 7.11041 12.0006 7.44641 12.0006 7.86041C12.0006 8.27441 11.6646 8.61041 11.2506 8.61041Z" fill="#52D1C6"/>
</svg>
