<svg width="30" height="30" viewBox="0 0 30 30" fill="none" xmlns="http://www.w3.org/2000/svg">
<path d="M22.3852 4H7.99678C5.7905 4.00262 4.00262 5.7905 4 7.99678V22.3852C4.00262 24.5915 5.7905 26.3794 7.99678 26.382H22.3852C24.5915 26.3794 26.3794 24.5915 26.382 22.3852V7.99678C26.3794 5.7905 24.5915 4.00262 22.3852 4ZM24.7833 22.3852C24.7833 23.7096 23.7096 24.7833 22.3852 24.7833H7.99678C6.67235 24.7833 5.5987 23.7096 5.5987 22.3852V7.99678C5.5987 6.67235 6.67235 5.5987 7.99678 5.5987H22.3852C23.7096 5.5987 24.7833 6.67235 24.7833 7.99678V22.3852Z" fill="#A5A5A5"/>
<path d="M20.6077 14.1078H16.2744V9.77442C16.2744 9.17609 15.7894 8.69107 15.191 8.69107C14.5927 8.69107 14.1077 9.17609 14.1077 9.77442V14.1078H9.77441C9.17608 14.1078 8.69106 14.5928 8.69106 15.1911C8.69106 15.7894 9.17608 16.2744 9.77441 16.2744H14.1077V20.6077C14.1077 21.206 14.5928 21.6911 15.1911 21.6911C15.7894 21.6911 16.2744 21.206 16.2744 20.6077V16.2744H20.6077C21.206 16.2744 21.6911 15.7894 21.6911 15.191C21.6911 14.5927 21.206 14.1078 20.6077 14.1078Z" fill="#A5A5A5"/>
</svg>
