<svg width="24" height="24" viewBox="0 0 24 24" fill="none" xmlns="http://www.w3.org/2000/svg">
<path d="M13.3912 11.9008C13.8736 12.0331 14.6558 12.0331 15.1382 11.9008C15.6206 11.7685 15.6206 11.5541 15.1382 11.4218L13.3912 11.9008ZM2.73529 8.50001L1.86181 8.2605C1.3794 8.39277 1.3794 8.60724 1.86181 8.73951L2.73529 8.50001ZM15.1382 5.57821C15.6206 5.44594 15.6206 5.23148 15.1382 5.09921C14.6558 4.96693 13.8736 4.96693 13.3912 5.09921L15.1382 5.57821ZM15.1382 11.4218L3.60878 8.2605L1.86181 8.73951L13.3912 11.9008L15.1382 11.4218ZM3.60878 8.73951L15.1382 5.57821L13.3912 5.09921L1.86181 8.2605L3.60878 8.73951Z" fill="#555555"/>
</svg>
