<svg width="20" height="20" viewBox="0 0 20 20" fill="none" xmlns="http://www.w3.org/2000/svg">
<path d="M14.1937 9.01961V18.4314C14.1932 18.8472 14.0572 19.2459 13.8153 19.5401C13.5734 19.8341 13.2454 19.9995 12.9033 20H3.87107C3.01583 19.9989 2.1959 19.5853 1.59116 18.8501C0.986417 18.1149 0.646242 17.1181 0.645264 16.0784V6.66667C0.645655 6.25079 0.781725 5.85208 1.02362 5.558C1.26552 5.26393 1.59349 5.09851 1.93559 5.09804H10.9678C11.8231 5.09923 12.643 5.51277 13.2478 6.24795C13.8525 6.98313 14.1927 7.97991 14.1937 9.01961ZM19.6788 7.16481C19.581 7.09588 19.4701 7.05935 19.3571 7.05888C19.2442 7.05841 19.133 7.09401 19.0348 7.16213L15.809 9.40305C15.7103 9.47165 15.6282 9.57077 15.5711 9.69036C15.514 9.80996 15.484 9.94579 15.484 10.0841V15.014C15.484 15.1522 15.514 15.2881 15.5711 15.4077C15.6282 15.5273 15.7103 15.6264 15.809 15.695L19.0348 17.9359C19.133 18.0041 19.2441 18.0397 19.3571 18.0392C19.4701 18.0387 19.581 18.0022 19.6788 17.9332C19.7765 17.8643 19.8577 17.7653 19.914 17.6463C19.9704 17.5272 20.0001 17.3923 20.0001 17.2549V7.84314C20.0001 7.70576 19.9705 7.57078 19.914 7.45174C19.8577 7.33269 19.7765 7.23374 19.6788 7.16481Z" fill="#555555"/>
</svg>
