<svg width="24" height="24" viewBox="0 0 24 24" fill="none" xmlns="http://www.w3.org/2000/svg">
<path d="M3.56217 3.261C3.18464 3.19036 2.82562 3.46396 2.76028 3.8721C2.69493 4.28025 2.94801 4.66838 3.32554 4.73902L3.56217 3.261ZM5.36784 4.36001L6.05915 4.29728C6.03274 3.95715 5.79724 3.6792 5.48615 3.621L5.36784 4.36001ZM6.2586 15.833L6.95002 15.7716L6.94991 15.7703L6.2586 15.833ZM7.92359 17.486V16.736H7.92138L7.92359 17.486ZM18.0143 17.486L18.0159 16.736H18.0143V17.486ZM19.6654 15.94L18.9788 15.8326L18.9787 15.8338L19.6654 15.94ZM20.5432 9.38201L21.2299 9.48942V9.48935L20.5432 9.38201ZM19.4934 7.86301L19.5928 7.12075L19.5899 7.12032L19.4934 7.86301ZM5.67702 7.09901C5.29387 7.09887 4.98317 7.43454 4.98304 7.84876C4.98291 8.26297 5.2934 8.59887 5.67655 8.59901L5.67702 7.09901ZM3.32554 4.73902L5.24952 5.09902L5.48615 3.621L3.56217 3.261L3.32554 4.73902ZM4.67653 4.42274L5.56729 15.8957L6.94991 15.7703L6.05915 4.29728L4.67653 4.42274ZM5.56719 15.8944C5.66806 17.2214 6.6943 18.2402 7.9258 18.236L7.92138 16.736C7.41389 16.7378 6.9916 16.3186 6.95002 15.7716L5.56719 15.8944ZM7.92359 18.236H18.0143V16.736H7.92359V18.236ZM18.0127 18.236C19.1891 18.2388 20.1859 17.3033 20.3521 16.0462L18.9787 15.8338C18.91 16.3527 18.4989 16.7372 18.0159 16.736L18.0127 18.236ZM20.352 16.0474L21.2299 9.48942L19.8566 9.2746L18.9788 15.8326L20.352 16.0474ZM21.2299 9.48935C21.3828 8.34606 20.6487 7.28605 19.5928 7.12075L19.3939 8.60527C19.6922 8.65197 19.8998 8.95196 19.8566 9.27467L21.2299 9.48935ZM19.5899 7.12032C19.575 7.11822 19.552 7.11569 19.544 7.11499C19.5388 7.1146 19.5304 7.11405 19.5268 7.11384C19.5196 7.11346 19.5137 7.11325 19.5106 7.11315C19.5039 7.11293 19.4973 7.11279 19.4925 7.1127C19.4822 7.11251 19.4693 7.11235 19.4549 7.11221C19.4256 7.11192 19.384 7.11164 19.3317 7.11138C19.2269 7.11084 19.0755 7.11033 18.8844 7.10983C18.5021 7.10883 17.9595 7.10789 17.3104 7.10703C16.0121 7.10529 14.2867 7.10382 12.5633 7.10263C10.8399 7.10145 9.11831 7.10054 7.8276 7.09993C7.18225 7.09963 6.6446 7.0994 6.2683 7.09924C6.08014 7.09916 5.93233 7.09911 5.83154 7.09907C5.78116 7.09905 5.74252 7.09903 5.71649 7.09902C5.70347 7.09902 5.69361 7.09902 5.687 7.09901C5.68368 7.09901 5.6812 7.09901 5.67952 7.09901C5.67869 7.09901 5.67806 7.09901 5.67764 7.09901C5.67744 7.09901 5.67728 7.09901 5.67717 7.09901C5.67707 7.09901 5.67702 7.09901 5.67678 7.84901C5.67655 8.59901 5.6766 8.59901 5.67671 8.59901C5.67681 8.59901 5.67697 8.59901 5.67718 8.59901C5.6776 8.59901 5.67823 8.59901 5.67906 8.59901C5.68072 8.59901 5.68321 8.59901 5.68651 8.59901C5.69313 8.59902 5.703 8.59902 5.71601 8.59902C5.74204 8.59903 5.78067 8.59905 5.83105 8.59907C5.93182 8.59911 6.07964 8.59916 6.26778 8.59924C6.64406 8.5994 7.18167 8.59963 7.827 8.59993C9.11765 8.60054 10.8391 8.60145 12.5624 8.60263C14.2858 8.60382 16.0109 8.60529 17.3087 8.60702C17.9577 8.60789 18.4996 8.60882 18.881 8.60982C19.0719 8.61032 19.222 8.61083 19.3252 8.61136C19.3769 8.61162 19.416 8.61189 19.4422 8.61215C19.4555 8.61228 19.4641 8.61239 19.4689 8.61248C19.4714 8.61253 19.4708 8.61253 19.4684 8.61245C19.4674 8.61242 19.4632 8.61228 19.4574 8.61197C19.4544 8.6118 19.4465 8.61128 19.4418 8.61092C19.4342 8.61026 19.4115 8.60777 19.3968 8.6057L19.5899 7.12032Z" fill="#555555"/>
<path d="M13.9657 10.2948C13.5826 10.2948 13.272 10.6306 13.272 11.0448C13.272 11.459 13.5826 11.7948 13.9657 11.7948V10.2948ZM16.5307 11.7948C16.9139 11.7948 17.2245 11.459 17.2245 11.0448C17.2245 10.6306 16.9139 10.2948 16.5307 10.2948V11.7948ZM13.9657 11.7948H16.5307V10.2948H13.9657V11.7948Z" fill="#555555"/>
<path fill-rule="evenodd" clip-rule="evenodd" d="M6.824 20.2025C7.10242 20.2025 7.32719 20.4465 7.32719 20.7465C7.32719 21.0475 7.10242 21.2915 6.824 21.2915C6.54557 21.2915 6.3208 21.0475 6.3208 20.7465C6.3208 20.4465 6.54557 20.2025 6.824 20.2025Z" fill="#555555" stroke="#555555" stroke-width="1.5" stroke-linecap="round" stroke-linejoin="round"/>
<path fill-rule="evenodd" clip-rule="evenodd" d="M17.2581 20.2025C17.5365 20.2025 17.7622 20.4465 17.7622 20.7465C17.7622 21.0475 17.5365 21.2915 17.2581 21.2915C16.9797 21.2915 16.7549 21.0475 16.7549 20.7465C16.7549 20.4465 16.9797 20.2025 17.2581 20.2025Z" fill="#555555" stroke="#555555" stroke-width="1.5" stroke-linecap="round" stroke-linejoin="round"/>
</svg>
