<svg width="30" height="30" viewBox="0 0 30 30" fill="none" xmlns="http://www.w3.org/2000/svg">
<path fill-rule="evenodd" clip-rule="evenodd" d="M25.7071 4.29292C25.9788 4.56456 26.0708 4.96779 25.9439 5.33038L18.9439 25.3304C18.8084 25.7174 18.4504 25.9825 18.0408 25.9992C17.6311 26.0159 17.2527 25.7808 17.0862 25.4062L13.2424 16.7576L4.59387 12.9138C4.21919 12.7473 3.98412 12.3689 4.00084 11.9593C4.01755 11.5496 4.28265 11.1916 4.66965 11.0562L24.6697 4.05617C25.0322 3.92926 25.4355 4.02128 25.7071 4.29292ZM15.1928 16.2215L17.8894 22.289L22.6085 8.80571L15.1928 16.2215ZM21.1943 7.3915L7.71108 12.1106L13.7785 14.8073L21.1943 7.3915Z" fill="black"/>
</svg>
