<svg width="24" height="24" viewBox="0 0 24 24" fill="none" xmlns="http://www.w3.org/2000/svg">
<path fill-rule="evenodd" clip-rule="evenodd" d="M15.6964 13.163C15.1444 13.163 14.6924 12.716 14.6924 12.163C14.6924 11.61 15.1354 11.163 15.6874 11.163H15.6964C16.2484 11.163 16.6964 11.61 16.6964 12.163C16.6964 12.716 16.2484 13.163 15.6964 13.163Z" fill="#52D1C6"/>
<path fill-rule="evenodd" clip-rule="evenodd" d="M11.6876 13.163C11.1356 13.163 10.6836 12.716 10.6836 12.163C10.6836 11.61 11.1256 11.163 11.6786 11.163H11.6876C12.2396 11.163 12.6876 11.61 12.6876 12.163C12.6876 12.716 12.2396 13.163 11.6876 13.163Z" fill="#52D1C6"/>
<path fill-rule="evenodd" clip-rule="evenodd" d="M7.67832 13.163C7.12632 13.163 6.67432 12.716 6.67432 12.163C6.67432 11.61 7.11732 11.163 7.66932 11.163H7.67832C8.23032 11.163 8.67832 11.61 8.67832 12.163C8.67832 12.716 8.23032 13.163 7.67832 13.163Z" fill="#52D1C6"/>
</svg>
