<svg width="24" height="24" viewBox="0 0 24 24" fill="none" xmlns="http://www.w3.org/2000/svg">
<path fill-rule="evenodd" clip-rule="evenodd" d="M21.8887 15.8956H17.8407C15.9437 15.8956 14.3997 14.3526 14.3987 12.4566C14.3987 10.5586 15.9427 9.01461 17.8407 9.01361H21.8887C22.3027 9.01361 22.6387 9.34961 22.6387 9.76361C22.6387 10.1776 22.3027 10.5136 21.8887 10.5136H17.8407C16.7697 10.5146 15.8987 11.3856 15.8987 12.4556C15.8987 13.5246 16.7707 14.3956 17.8407 14.3956H21.8887C22.3027 14.3956 22.6387 14.7316 22.6387 15.1456C22.6387 15.5596 22.3027 15.8956 21.8887 15.8956Z" fill="#52D1C6"/>
<path fill-rule="evenodd" clip-rule="evenodd" d="M18.2983 13.1436H17.9863C17.5723 13.1436 17.2363 12.8076 17.2363 12.3936C17.2363 11.9796 17.5723 11.6436 17.9863 11.6436H18.2983C18.7123 11.6436 19.0483 11.9796 19.0483 12.3936C19.0483 12.8076 18.7123 13.1436 18.2983 13.1436Z" fill="#52D1C6"/>
<path fill-rule="evenodd" clip-rule="evenodd" d="M12.6846 9.03809H7.28564C6.87164 9.03809 6.53564 8.70209 6.53564 8.28809C6.53564 7.87409 6.87164 7.53809 7.28564 7.53809H12.6846C13.0986 7.53809 13.4346 7.87409 13.4346 8.28809C13.4346 8.70209 13.0986 9.03809 12.6846 9.03809Z" fill="#52D1C6"/>
</svg>
