<svg width="95" height="27" viewBox="0 0 95 27" fill="none" xmlns="http://www.w3.org/2000/svg">
<path d="M4.88935 0.0938073C2.94494 0.907709 0.807392 3.20708 0.132283 6.09329C-0.722689 9.75024 2.83525 11.2966 3.12707 10.7896C3.47055 10.1938 2.48953 9.99233 2.2876 8.09494C2.02661 5.6443 3.16591 2.90599 4.59976 1.70449C4.86629 1.48127 4.85361 1.79196 4.85361 2.36665C4.85361 3.39432 4.79682 12.6198 4.79682 14.5452C4.79682 17.1505 4.68922 17.9732 4.49595 18.7861C4.30014 19.6099 3.98533 20.1666 4.22387 20.381C4.49039 20.6208 5.62831 20.0503 6.28707 19.1309C7.07702 18.0282 7.35353 16.7039 7.40318 15.2658C7.46314 13.5321 7.46059 10.7812 7.46314 9.21206C7.46554 7.77295 7.48739 3.55892 7.43792 1.02559C7.42579 0.404223 5.70261 -0.246932 4.88935 0.0938073ZM73.9351 12.2863C73.8725 13.6407 73.5727 14.6993 73.2006 15.4461C72.4802 16.8917 70.9854 17.3406 70.3508 15.2624C70.0049 14.1296 69.9888 12.2378 70.2374 10.657C70.4905 9.04661 71.1973 7.83041 72.3676 7.94009C73.522 8.04851 74.0623 9.53597 73.9351 12.2863ZM54.4752 20.6894C54.4595 22.9399 54.1053 24.913 53.3458 25.4861C52.2685 26.2987 50.8206 25.6892 51.1205 24.047C51.3857 22.5938 52.6403 21.1098 54.4782 19.2965C54.4782 19.2965 54.482 19.71 54.4752 20.6894ZM54.181 12.2732C54.1151 13.5068 53.7953 14.746 53.4464 15.4462C52.7262 16.8919 51.2206 17.3438 50.5966 15.2626C50.17 13.8407 50.2722 12.0003 50.4832 10.8407C50.7572 9.33619 51.4211 7.94041 52.6134 7.94041C53.7727 7.94041 54.3444 9.21217 54.181 12.2732ZM42.9078 12.2543C42.8371 13.5608 42.5822 14.653 42.1732 15.4462C41.4332 16.8819 39.9691 17.3372 39.3234 15.2626C38.858 13.7667 39.0164 11.7269 39.21 10.625C39.4974 8.98985 40.2169 7.83056 41.3403 7.94041C42.4941 8.05314 43.055 9.53597 42.9078 12.2543ZM94.5702 13.7804C94.2882 13.7804 94.1594 14.0711 94.053 14.5605C93.6836 16.2622 93.2953 16.6464 92.7947 16.6464C92.2354 16.6464 91.7328 15.8038 91.6036 14.1171C91.5021 12.7908 91.5184 10.349 91.6482 7.92012C91.6747 7.42107 91.5371 6.9273 90.1985 6.44104C89.6226 6.23188 88.7853 5.92391 88.3685 6.93018C87.1906 9.77305 86.7298 12.0301 86.6214 12.9469C86.6158 12.9944 86.5576 13.0041 86.5474 12.8932C86.4783 12.1589 86.3238 10.8244 86.3046 8.02071C86.3009 7.47368 86.185 7.00805 85.5812 6.62684C85.1895 6.37948 83.9998 5.94199 83.5714 6.46246C83.2003 6.88812 82.7705 8.03365 82.3239 9.39153C81.9609 10.4952 81.7081 11.2418 81.7081 11.2418C81.7081 11.2418 81.7129 8.26391 81.7172 7.13437C81.7191 6.70824 81.4268 6.56624 81.3387 6.5405C80.942 6.42536 80.1604 6.23301 79.8286 6.23301C79.4193 6.23301 79.319 6.46182 79.319 6.79522C79.319 6.83887 79.2544 10.7158 79.2544 13.4268C79.2544 13.5445 79.2544 13.673 79.2556 13.8095C79.0292 15.0555 78.2949 16.7469 77.4964 16.7469C76.6969 16.7469 76.3197 16.0398 76.3197 12.8079C76.3197 10.9225 76.3763 10.1027 76.4041 8.73905C76.4202 7.95361 76.4514 7.35046 76.4497 7.21358C76.4438 6.79384 75.718 6.58229 75.3803 6.50411C75.041 6.42527 74.7461 6.39473 74.5158 6.40784C74.19 6.42622 73.9594 6.64002 73.9594 6.93408C73.9594 7.09174 73.9612 7.39155 73.9612 7.39155C73.5414 6.73196 72.8663 6.27288 72.4172 6.13985C71.2074 5.78055 69.9449 6.09891 68.9927 7.43137C68.2359 8.49008 67.7797 9.68917 67.6002 11.412C67.4689 12.6714 67.5117 13.9486 67.745 15.0288C67.4631 16.2476 66.9398 16.7469 66.3667 16.7469C65.5347 16.7469 64.9316 15.3889 65.0016 13.0404C65.0478 11.4957 65.3569 10.4116 65.6948 8.84329C65.8388 8.17474 65.7218 7.82472 65.4282 7.48925C65.1589 7.1816 64.5852 7.02442 63.7605 7.21774C63.173 7.35558 62.333 7.5038 61.5645 7.61765C61.5645 7.61765 61.6109 7.43264 61.649 7.10646C61.8488 5.39583 59.99 5.53462 59.3969 6.081C59.0429 6.4072 58.8019 6.79192 58.7105 7.48366C58.5654 8.58138 59.4607 9.09914 59.4607 9.09914C59.167 10.4437 58.4469 12.2003 57.7036 13.4702C57.3054 14.1506 57.0008 14.6548 56.6076 15.1907C56.6062 14.9912 56.6051 14.7916 56.6044 14.593C56.5954 11.7661 56.633 9.54122 56.6496 8.73931C56.6658 7.95388 56.6973 7.36672 56.6955 7.22985C56.6911 6.92284 56.5118 6.80691 56.1389 6.66011C55.8092 6.53028 55.4193 6.44041 55.0149 6.40907C54.5045 6.36926 54.197 6.63997 54.205 6.96009C54.2066 7.02054 54.2066 7.39167 54.2066 7.39167C53.7868 6.73207 53.1117 6.273 52.6626 6.13995C51.4528 5.78082 50.1903 6.09918 49.2381 7.43148C48.4815 8.49019 47.9859 9.97583 47.8455 11.399C47.7148 12.7253 47.7389 13.8525 47.9172 14.802C47.7248 15.7527 47.1717 16.747 46.5464 16.747C45.7469 16.747 45.2919 16.0399 45.2919 12.808C45.2919 10.9226 45.3485 10.1028 45.3764 8.73931C45.3925 7.95388 45.4237 7.35058 45.4219 7.21386C45.4161 6.79412 44.6902 6.58257 44.3525 6.50422C43.9991 6.42251 43.694 6.39245 43.4598 6.40971C43.1507 6.43274 42.9334 6.70953 42.9334 6.91596V7.39167C42.5136 6.73207 41.8385 6.273 41.3894 6.13995C40.1796 5.78082 38.9242 6.10431 37.9649 7.43148C37.3394 8.29686 36.833 9.25628 36.5724 11.3801C36.497 11.9938 36.4638 12.5685 36.4681 13.1057C36.2187 14.6312 35.1169 16.3895 34.2157 16.3895C33.6884 16.3895 33.1861 15.3666 33.1861 13.1866C33.1861 10.2828 33.3659 6.14844 33.3962 5.74997C33.3962 5.74997 34.5349 5.73062 34.7554 5.72805C35.3234 5.72181 35.8378 5.73525 36.5943 5.69655C36.9737 5.6772 37.3392 4.31548 36.9476 4.14695C36.7702 4.07068 35.5157 4.00384 35.0184 3.99329C34.6003 3.98381 33.4362 3.89767 33.4362 3.89767C33.4362 3.89767 33.5406 1.15344 33.5649 0.863544C33.5856 0.62193 33.273 0.497532 33.0937 0.422048C32.6578 0.237686 32.2678 0.149415 31.8056 0.0541159C31.1669 -0.077636 30.8772 0.0512374 30.8206 0.590264C30.7353 1.40833 30.6912 3.80444 30.6912 3.80444C30.2225 3.80444 28.6216 3.71282 28.1528 3.71282C27.7172 3.71282 27.2471 5.58607 27.8493 5.60909C28.5421 5.63595 29.7495 5.65914 30.55 5.68329C30.55 5.68329 30.5143 9.88581 30.5143 11.1832C30.5143 11.3213 30.5155 11.4542 30.5158 11.5832C30.0753 13.8794 28.5236 15.1197 28.5236 15.1197C28.8568 13.6007 28.1761 12.4599 26.95 11.4943C26.4983 11.1384 25.6065 10.4648 24.6087 9.72657C24.6087 9.72657 25.1866 9.15701 25.6991 8.01116C26.0622 7.1995 26.0779 6.27063 25.1866 6.0658C23.7139 5.72713 22.4996 6.80869 22.1374 7.96335C21.8568 8.85783 22.0065 9.52158 22.5562 10.2111C22.5964 10.2614 22.6399 10.3129 22.6848 10.3647C22.3523 11.0055 21.8957 11.8682 21.5089 12.5372C20.4353 14.3946 19.6243 15.8637 19.0114 15.8637C18.5214 15.8637 18.528 14.3722 18.528 12.9756C18.528 11.7717 18.6169 9.96162 18.6879 8.08759C18.7114 7.46781 18.4015 7.11474 17.882 6.79495C17.5663 6.60067 16.8927 6.21867 16.5025 6.21867C15.9185 6.21867 14.2337 6.29813 12.6417 10.9031C12.4411 11.4835 12.0469 12.5412 12.0469 12.5412L12.0809 7.00345C12.0809 6.87362 12.0117 6.7481 11.8534 6.66222C11.5851 6.51656 10.8686 6.21867 10.2315 6.21867C9.92795 6.21867 9.77647 6.35986 9.77647 6.64128L9.7209 15.3051C9.7209 15.9633 9.73806 16.7313 9.80314 17.0672C9.86799 17.4035 9.97304 17.677 10.1031 17.8398C10.2331 18.0023 10.3834 18.1262 10.6311 18.1774C10.8617 18.2248 12.1245 18.387 12.1902 17.9044C12.2688 17.3261 12.2718 16.7005 12.9349 14.3675C13.9672 10.7354 15.3131 8.96321 15.9458 8.33383C16.0565 8.22383 16.1828 8.21727 16.1767 8.39731C16.1497 9.19363 16.0547 11.1834 15.9908 12.8739C15.8194 17.3978 16.6423 18.2364 17.8184 18.2364C18.7182 18.2364 19.9865 17.3423 21.3462 15.0793C22.1938 13.669 23.0168 12.2861 23.6081 11.2894C24.0202 11.6709 24.4826 12.0815 24.9447 12.5201C26.0186 13.5393 26.3712 14.5078 26.1373 15.4266C25.9584 16.129 25.2845 16.8528 24.0853 16.1493C23.7357 15.944 23.5865 15.7854 23.2351 15.554C23.0462 15.4297 22.7579 15.3925 22.5851 15.5228C22.1361 15.8613 21.8793 16.2919 21.7327 16.825C21.59 17.3438 22.1095 17.618 22.6481 17.8578C23.1118 18.0643 24.1085 18.2513 24.7441 18.2726C27.2206 18.3555 29.2045 17.0769 30.5856 13.7788C30.8328 16.6271 31.8849 18.2389 33.7129 18.2389C34.9351 18.2389 36.1604 16.6592 36.6962 15.1052C36.85 15.7386 37.0777 16.2895 37.3718 16.7553C38.7804 18.9871 41.5129 18.5067 42.8855 16.6116C43.3099 16.026 43.3745 15.8156 43.3745 15.8156C43.5747 17.6051 45.0157 18.2303 45.8408 18.2303C46.7649 18.2303 47.719 17.7934 48.3877 16.288C48.4661 16.4513 48.5516 16.6074 48.645 16.7553C50.0535 18.987 52.7861 18.5067 54.1587 16.6116C54.2234 16.5227 54.2796 16.442 54.3287 16.3697L54.369 17.5451C54.369 17.5451 53.5859 18.2634 53.1053 18.704C50.9898 20.6449 49.3812 22.1174 49.2628 23.8322C49.1109 26.0187 50.8842 26.8313 52.2258 26.9378C53.6505 27.0509 54.8706 26.2639 55.6205 25.1624C56.2801 24.193 56.7118 22.1064 56.6802 20.0456C56.6675 19.2204 56.6468 18.1711 56.6304 17.0463C57.374 16.1829 58.2117 15.0915 58.9831 13.8141C59.8237 12.4219 60.7245 10.5524 61.1859 9.09748C61.1859 9.09748 61.9686 9.10419 62.8039 9.04951C63.0711 9.03208 63.1479 9.0866 63.0984 9.28249C63.0388 9.51913 62.0431 13.3596 62.9518 15.9181C63.5738 17.6695 64.976 18.2329 65.8073 18.2329C66.7805 18.2329 67.7114 17.498 68.2103 16.4067C68.2704 16.5284 68.3333 16.6461 68.4019 16.7548C69.8105 18.9866 72.5334 18.5033 73.9156 16.6111C74.2276 16.1842 74.4046 15.8151 74.4046 15.8151C74.7012 17.6671 76.1414 18.2392 76.9663 18.2392C77.8257 18.2392 78.6412 17.8869 79.3028 16.3213C79.3305 17.0107 79.374 17.5743 79.4427 17.752C79.4846 17.8607 79.7288 17.9971 79.9064 18.063C80.6925 18.3545 81.4943 18.2167 81.7909 18.1567C81.9964 18.1151 82.1566 17.9503 82.1785 17.5246C82.236 16.4069 82.2007 14.529 82.5395 13.1334C83.1083 10.7911 83.6389 9.88259 83.8906 9.43279C84.0314 9.18078 84.1904 9.13921 84.1961 9.40593C84.208 9.94559 84.2348 11.5304 84.4552 13.6596C84.617 15.2256 84.8332 16.1512 84.9993 16.4441C85.4734 17.2819 86.059 17.3215 86.5358 17.3215C86.8391 17.3215 87.4735 17.2377 87.4167 16.7046C87.389 16.4448 87.4375 14.8389 87.9983 12.5313C88.3644 11.0244 88.9749 9.66287 89.1951 9.1651C89.2763 8.98153 89.3141 9.12624 89.3128 9.15443C89.2664 10.1922 89.1623 13.5866 89.5851 15.443C90.1582 17.958 91.8161 18.2394 92.3938 18.2394C93.6271 18.2394 94.6358 17.3012 94.9755 14.8327C95.0574 14.2386 94.9362 13.7799 94.5731 13.7799" fill="#262626"/>
</svg>
