<svg width="30" height="30" viewBox="0 0 30 30" fill="none" xmlns="http://www.w3.org/2000/svg">
<path fill-rule="evenodd" clip-rule="evenodd" d="M4 15C4 8.92487 8.92487 4 15 4C21.0751 4 26 8.92487 26 15C26 21.0751 21.0751 26 15 26C8.92487 26 4 21.0751 4 15Z" fill="black"/>
<circle cx="15" cy="11" r="1" fill="white"/>
<path d="M14 15C14 14.4477 14.4477 14 15 14C15.5523 14 16 14.4477 16 15V19C16 19.5523 15.5523 20 15 20C14.4477 20 14 19.5523 14 19V15Z" fill="white"/>
<path fill-rule="evenodd" clip-rule="evenodd" d="M15 6C10.0294 6 6 10.0294 6 15C6 19.9706 10.0294 24 15 24C19.9706 24 24 19.9706 24 15C24 10.0294 19.9706 6 15 6ZM4 15C4 8.92487 8.92487 4 15 4C21.0751 4 26 8.92487 26 15C26 21.0751 21.0751 26 15 26C8.92487 26 4 21.0751 4 15Z" fill="black"/>
<circle cx="15" cy="11" r="1" fill="black"/>
<path d="M14 15C14 14.4477 14.4477 14 15 14C15.5523 14 16 14.4477 16 15V19C16 19.5523 15.5523 20 15 20C14.4477 20 14 19.5523 14 19V15Z" fill="black"/>
</svg>
