<svg width="15" height="16" viewBox="0 0 15 16" fill="none" xmlns="http://www.w3.org/2000/svg">
<path d="M10.5527 4.60659C10.7497 4.41309 10.7526 4.09653 10.5591 3.89953C10.3656 3.70253 10.049 3.69969 9.85202 3.89319L10.5527 4.60659ZM3.46634 10.8662L3.81089 11.2228C3.81247 11.2245 3.81508 11.2245 3.8167 11.2229L3.46634 10.8662ZM3.08742 11.7501H2.58743H3.08742ZM4.38113 13.0001V12.5001V13.0001ZM5.29593 12.634L5.64091 12.991C5.64225 12.9924 5.64446 12.9924 5.64582 12.9911L5.29593 12.634ZM13.3256 4.76764L12.9807 4.41056C12.9793 4.40918 12.9771 4.40915 12.9758 4.41048L13.3256 4.76764ZM11.4961 0.499987V0V0.499987ZM9.6665 1.2322L9.32148 0.875107C9.32016 0.873737 9.31797 0.873706 9.31661 0.87504L9.6665 1.2322ZM1.63675 9.09849L1.98176 9.45558C1.98309 9.45695 1.98528 9.45698 1.98664 9.45565L1.63675 9.09849ZM0.499987 11.7501H0H0.499987ZM4.38113 15.5V16V15.5ZM7.12552 14.4016L6.77834 14.0418L6.77811 14.0421L7.12552 14.4016ZM14.1072 8.35959C14.306 8.16784 14.3116 7.85132 14.1199 7.65262C13.9281 7.4539 13.6116 7.44825 13.4129 7.63999L14.1072 8.35959ZM9.85202 3.89319L3.82937 9.80881C3.43537 10.1958 3.4297 10.8289 3.8167 11.2229L10.5527 4.60659L9.85202 3.89319ZM3.46637 10.8662C3.27449 10.6676 2.9498 10.6602 2.81315 10.9002C2.66693 11.157 2.58743 11.4488 2.58743 11.7501H3.5874C3.5874 11.7211 3.58919 11.6922 3.59272 11.6635C3.62649 11.3895 3.65823 11.0648 3.46637 10.8662ZM2.58743 11.7501C2.58743 12.2199 2.78074 12.6668 3.11893 12.9935L3.81375 12.2744C3.6667 12.1323 3.5874 11.9433 3.5874 11.7501H2.58743ZM3.11893 12.9935C3.45653 13.3196 3.91086 13.5 4.38113 13.5V12.5001C4.16518 12.5001 3.96138 12.417 3.81375 12.2744L3.11893 12.9935ZM4.38113 13.5C4.68289 13.5 4.97808 13.4258 5.24008 13.2864C5.48387 13.1566 5.48778 12.8325 5.29589 12.6339C5.10403 12.4353 4.77956 12.4493 4.50657 12.4906C4.46545 12.4969 4.42352 12.5001 4.38113 12.5001V13.5ZM5.64582 12.9911L12.9612 5.82458C13.3557 5.43811 13.3622 4.80499 12.9758 4.41048L5.66034 11.577C5.26584 11.9635 5.25934 12.5966 5.64582 12.9911ZM13.3257 4.76765C13.5176 4.96622 13.8382 4.97369 14.0025 4.75174C14.1396 4.56643 14.2551 4.36585 14.3461 4.15361L13.427 3.75959C13.3885 3.84952 13.3432 3.93655 13.2915 4.02C13.1462 4.25479 13.1338 4.56907 13.3257 4.76765ZM14.3461 4.15361C14.5027 3.78839 14.5835 3.39631 14.5835 2.99992H13.5835C13.5835 3.26012 13.5305 3.51821 13.427 3.75959L14.3461 4.15361ZM14.5835 2.99992C14.5835 2.60353 14.5027 2.21145 14.3461 1.84623L13.427 2.24025C13.5305 2.48163 13.5835 2.73972 13.5835 2.99992H14.5835ZM14.3461 1.84623C14.1895 1.48105 13.9605 1.15038 13.6731 0.872629L12.9783 1.59177C13.1713 1.7783 13.3235 1.99882 13.427 2.24025L14.3461 1.84623ZM13.6731 0.872629C13.3856 0.594918 13.0454 0.375497 12.6721 0.22609L12.3005 1.15448C12.555 1.25634 12.7852 1.4052 12.9783 1.59177L13.6731 0.872629ZM12.6721 0.22609C12.2988 0.076693 11.8992 0 11.4961 0V0.999973C11.7726 0.999973 12.046 1.05261 12.3005 1.15448L12.6721 0.22609ZM11.4961 0C11.093 0 10.6934 0.076693 10.3202 0.22609L10.6917 1.15448C10.9462 1.05261 11.2196 0.999973 11.4961 0.999973V0ZM10.3202 0.22609C10.1027 0.313106 9.8965 0.423869 9.70539 0.556066C9.4783 0.713161 9.47463 1.03362 9.66651 1.2322C9.85838 1.43079 10.1732 1.43001 10.4118 1.29102C10.5011 1.23901 10.5946 1.19333 10.6917 1.15448L10.3202 0.22609ZM9.31661 0.87504L2.00118 8.04155C1.60667 8.42802 1.60016 9.06114 1.98664 9.45565L9.30207 2.28914C9.69658 1.90266 9.70309 1.26955 9.31661 0.87504ZM1.63675 9.09849C1.44488 8.8999 1.12566 8.8928 0.950705 9.10644C0.339364 9.85293 0 10.7833 0 11.7501H0.999973C0.999973 11.0578 1.22998 10.3861 1.65221 9.83134C1.81945 9.61161 1.82862 9.29707 1.63675 9.09849ZM0 11.7501C0 12.8829 0.465913 13.9656 1.28934 14.7612L1.98416 14.0421C1.35187 13.4311 0.999973 12.6064 0.999973 11.7501H0ZM1.28934 14.7612C2.11217 15.5562 3.22462 16 4.38113 16V15C3.47895 15 2.61703 14.6535 1.98416 14.0421L1.28934 14.7612ZM4.38113 16C5.19852 16 5.9939 15.7783 6.68058 15.3676C7.15452 15.0842 7.16184 14.4393 6.77811 14.0421C6.14524 14.6535 5.28332 15 4.38113 15V16ZM6.77834 14.0418C7.16183 14.4392 7.79487 14.4505 8.19229 14.0671L14.1072 8.35959L13.4129 7.63999L6.77834 14.0418Z" fill="#ADADAD"/>
</svg>
