<svg width="55" height="36" viewBox="0 0 55 36" fill="none" xmlns="http://www.w3.org/2000/svg">
<path fill-rule="evenodd" clip-rule="evenodd" d="M11.5362 0.152757C10.566 0.371175 9.9612 0.655583 9.16782 1.2663C6.71203 3.15654 5.96569 6.63994 7.21586 10.376C7.93359 12.521 9.15653 14.082 10.7207 14.8497C11.4161 15.191 11.5792 15.2192 12.86 15.2192C14.1921 15.2192 14.28 15.2023 15.0982 14.7869C17.3205 13.6589 18.7512 10.932 18.9032 7.53494C19.0176 4.97627 18.4217 3.20898 16.9631 1.7818C15.4051 0.257262 13.5478 -0.300137 11.5362 0.152757ZM41.0121 0.147363C36.4548 1.12893 34.752 6.94592 37.4843 12.1992C38.895 14.9116 41.8817 16.0431 44.4848 14.8514C46.0318 14.1432 47.4886 12.1663 48.1346 9.89864C48.5492 8.44298 48.6562 6.17036 48.3678 4.94478C47.5705 1.55648 44.3182 -0.564723 41.0121 0.147363ZM25.6 1.17861C24.2485 1.54205 22.8411 2.62599 21.9693 3.97476C20.7681 5.83326 20.4894 7.6333 21.0132 10.1527C21.7248 13.5762 23.9602 16.2349 26.6035 16.8018C29.1218 17.3419 31.9027 15.6075 33.2647 12.6474C33.8166 11.4478 34.3695 9.16072 34.3672 8.08619C34.3605 4.85797 32.2488 1.91189 29.4117 1.17296C28.4838 0.931334 26.5089 0.934219 25.6 1.17861ZM17.6788 14.4731C16.571 15.6057 15.2483 16.2942 13.7069 16.5404C11.7847 16.8475 9.54243 16.0373 7.93284 14.4541C7.82444 14.3474 7.634 14.3361 7.28172 14.4153C3.19476 15.3335 1.12725 18.1443 0.184953 24.0638C-0.0614416 25.6119 -0.0616928 27.5936 0.184451 28.4225C0.473375 29.3952 0.833934 29.6282 2.52533 29.935C3.30679 30.0768 4.31307 30.2273 4.76157 30.2695C5.21007 30.3115 6.0569 30.3985 6.6434 30.4627C7.22991 30.5268 8.25338 30.605 8.91791 30.6364L10.1259 30.6938L10.2092 29.9192C10.5133 27.0946 11.4959 23.6305 12.6353 21.3665C14.1448 18.3669 16.7485 16.2742 19.9811 15.4621L20.8342 15.2478L20.4947 14.8935C20.1075 14.4894 19.3327 14.0993 18.6825 13.9812C18.2765 13.9075 18.1913 13.9491 17.6788 14.4731ZM35.9621 14.0861C35.344 14.3026 34.4945 14.893 34.4945 15.1059C34.4945 15.1974 34.7345 15.3324 35.0277 15.4058C37.3188 15.9797 39.5824 17.3641 40.9354 19.019C42.046 20.3772 43.0961 22.4673 43.89 24.8992C44.3585 26.3341 44.6172 27.5743 44.7938 29.2332C44.8696 29.9436 44.9792 30.5752 45.0377 30.6368C45.2163 30.8251 50.4387 30.3222 52.7847 29.8906C54.1123 29.6465 54.3851 29.5166 54.7274 28.9664C54.9866 28.5495 55.006 28.3744 54.999 26.5102C54.9902 24.1604 54.6886 22.2666 53.9901 20.1747C53.1474 17.6513 51.8181 16.0639 49.7118 15.0659C49.0615 14.7578 48.2778 14.4857 47.9175 14.443C47.327 14.373 47.2471 14.3966 46.8767 14.7493C46.232 15.3632 44.9126 16.1515 44.1605 16.3719C43.2842 16.6288 41.6841 16.6252 40.6643 16.3639C39.5598 16.081 38.8127 15.6646 37.8818 14.8132C36.9585 13.9688 36.6405 13.8484 35.9621 14.0861ZM20.9453 16.7839C17.798 17.6203 15.9932 19.0253 14.7364 21.6174C13.3393 24.4989 12.2006 29.3347 12.3089 31.9261C12.3459 32.8123 12.394 32.997 12.6653 33.29C13.1354 33.7977 13.8924 34.0702 15.5883 34.3419C19.9122 35.0347 21.8173 35.167 27.4063 35.1626C32.6458 35.1586 35.4188 34.9992 38.3837 34.5316C41.5725 34.0286 42.2317 33.7894 42.6414 32.9866C43.0909 32.1053 42.9569 30.3602 42.1969 27.2002C41.3169 23.5416 40.5266 21.5107 39.4136 20.0493C38.5849 18.9608 37.6795 18.2443 36.3 17.5852C35.2705 17.0933 33.0355 16.411 32.4534 16.411C32.3282 16.411 31.9059 16.6473 31.5152 16.9359C31.1244 17.2245 30.4071 17.6331 29.9209 17.8436C29.1026 18.1983 28.9305 18.2264 27.5945 18.2231C26.3273 18.22 26.0471 18.1783 25.291 17.8803C24.8176 17.6936 24.0479 17.2867 23.5805 16.976C23.1131 16.6652 22.6254 16.4162 22.4967 16.4225C22.3679 16.4287 21.6698 16.5913 20.9453 16.7839Z" fill="white"/>
</svg>
