<svg width="10" height="10" viewBox="0 0 10 10" fill="none" xmlns="http://www.w3.org/2000/svg">
<path d="M1.7948 8.76712H1.28198H1.7948ZM2.43583 3.28767V3.83561V3.28767ZM3.71764 3.28767V3.83561C3.88911 3.83561 4.04922 3.74405 4.14434 3.59161L3.71764 3.28767ZM4.35867 2.26027V1.71233C4.1872 1.71233 4.02709 1.80389 3.93198 1.95633L4.35867 2.26027ZM6.92277 2.26027L7.34947 1.95633C7.25435 1.80389 7.09424 1.71233 6.92277 1.71233V2.26027ZM7.5638 3.28767L7.13711 3.59161C7.23222 3.74405 7.39233 3.83561 7.5638 3.83561V3.28767ZM8.84609 8.90411H2.43583V10H8.84609V8.90411ZM2.43583 8.90411C2.40183 8.90411 2.36922 8.88967 2.34517 8.86399L1.61994 9.6389C1.83632 9.8701 2.12981 10 2.43583 10V8.90411ZM2.34517 8.86399C2.32113 8.8383 2.30762 8.80345 2.30762 8.76712H1.28198C1.28198 9.0941 1.40355 9.40769 1.61994 9.6389L2.34517 8.86399ZM2.30762 8.76712V3.9726H1.28198V8.76712H2.30762ZM2.30762 3.9726C2.30762 3.93627 2.32113 3.90142 2.34517 3.87573L1.61994 3.10082C1.40355 3.33203 1.28198 3.64562 1.28198 3.9726H2.30762ZM2.34517 3.87573C2.36922 3.85005 2.40183 3.83561 2.43583 3.83561V2.73972C2.12981 2.73972 1.83632 2.86962 1.61994 3.10082L2.34517 3.87573ZM2.43583 3.83561H3.71764V2.73972H2.43583V3.83561ZM4.14434 3.59161L4.78537 2.56422L3.93198 1.95633L3.29096 2.98372L4.14434 3.59161ZM4.35867 2.80822H6.92277V1.71233H4.35867V2.80822ZM6.49609 2.56422L7.13711 3.59161L7.9905 2.98372L7.34947 1.95633L6.49609 2.56422ZM7.5638 3.83561H8.84609V2.73972H7.5638V3.83561ZM8.84609 3.83561C8.88009 3.83561 8.9127 3.85005 8.93674 3.87573L9.66198 3.10082C9.44559 2.86962 9.15211 2.73972 8.84609 2.73972V3.83561ZM8.93674 3.87573C8.96078 3.90142 8.97429 3.93627 8.97429 3.9726H9.99993C9.99993 3.64562 9.87836 3.33203 9.66198 3.10082L8.93674 3.87573ZM8.97429 3.9726V8.76712H9.99993V3.9726H8.97429ZM8.97429 8.76712C8.97429 8.80345 8.96078 8.8383 8.93674 8.86399L9.66198 9.6389C9.87836 9.40769 9.99993 9.0941 9.99993 8.76712H8.97429ZM8.93674 8.86399C8.9127 8.88967 8.88009 8.90411 8.84609 8.90411V10C9.15211 10 9.44559 9.8701 9.66198 9.6389L8.93674 8.86399Z" fill="#52D1C6"/>
<path d="M6.57041 6.19863C6.57041 6.74713 6.15426 7.19178 5.64092 7.19178V8.28767C6.7207 8.28767 7.59605 7.35237 7.59605 6.19863H6.57041ZM5.64092 7.19178C5.12758 7.19178 4.71143 6.74713 4.71143 6.19863H3.68579C3.68579 7.35237 4.56113 8.28767 5.64092 8.28767V7.19178ZM4.71143 6.19863C4.71143 5.65013 5.12758 5.20548 5.64092 5.20548V4.10959C4.56113 4.10959 3.68579 5.04488 3.68579 6.19863H4.71143ZM5.64092 5.20548C6.15426 5.20548 6.57041 5.65013 6.57041 6.19863H7.59605C7.59605 5.04488 6.7207 4.10959 5.64092 4.10959V5.20548Z" fill="#52D1C6"/>
</svg>
