<svg width="20" height="20" viewBox="0 0 20 20" fill="none" xmlns="http://www.w3.org/2000/svg">
<path d="M19.1625 14.1453L15.119 12.353C14.908 12.259 14.6775 12.2211 14.4486 12.2429C14.2197 12.2646 13.9998 12.3453 13.8087 12.4775L11.6468 13.968C10.3255 13.3033 9.25603 12.2021 8.60754 10.8385L8.60771 10.8383L10.0438 8.56888C10.1688 8.37186 10.2446 8.14586 10.2645 7.91111C10.2844 7.67637 10.2477 7.44017 10.1578 7.22367L8.42325 3.03815C8.30519 2.75404 8.10131 2.51712 7.84216 2.36288C7.583 2.20863 7.28251 2.14536 6.98567 2.18253C5.81925 2.33763 4.74731 2.92662 3.97012 3.83946C3.19293 4.75229 2.76364 5.92654 2.76245 7.14285C2.76245 14.2324 8.33911 20 15.1939 20C16.3699 19.9987 17.5053 19.5547 18.3879 18.7509C19.2705 17.9471 19.84 16.8384 19.9899 15.632C20.0258 15.325 19.9645 15.0143 19.8154 14.7463C19.6663 14.4783 19.4372 14.2674 19.1625 14.1453Z" fill="#555555"/>
</svg>
