<svg width="40" height="40" viewBox="0 0 40 40" fill="none" xmlns="http://www.w3.org/2000/svg">
<g clip-path="url(#clip0_53_57)">
<path fill-rule="evenodd" clip-rule="evenodd" d="M14.324 -1.81953C14.0196 -1.56475 13.8636 -1.24737 13.685 -0.520022C13.451 0.432908 13.1486 0.644138 10.7793 1.5082C9.20287 2.0831 8.47684 2.44834 7.67592 3.06953C6.84919 3.71064 6.5369 4.14004 6.48963 4.70039C6.45447 5.1165 6.49495 5.22754 6.97578 6.0332C7.68537 7.22216 8.42727 8.87382 8.73048 9.93945C8.96291 10.7563 8.98118 10.9493 8.98962 12.6738C8.99651 14.0927 9.02919 14.5801 9.12833 14.7449C9.19975 14.8636 9.5281 15.1453 9.85802 15.3712L10.458 15.7818L10.4657 17.4993C10.4738 19.3144 10.5581 19.9899 10.935 21.2633C11.7552 24.0346 13.5868 26.4069 15.8467 27.6252C16.9677 28.2296 19.0983 28.5701 20.4199 28.3561C23.5638 27.8473 26.257 25.3428 27.4977 21.7744C28.0167 20.2817 28.1617 19.3157 28.1525 17.4102L28.1444 15.7011L28.6571 15.4045C28.9392 15.2414 29.2517 14.9914 29.3515 14.849C29.5992 14.4962 29.6817 13.8085 29.5825 12.9245C29.3694 11.0267 29.9258 8.98857 31.3491 6.45341C31.866 5.533 32.0762 5.06513 32.0762 4.83515C32.0762 3.6084 30.3595 2.34131 27.3469 1.34433C26.7419 1.14414 26.0732 0.872653 25.8608 0.74111C25.3304 0.412595 24.9364 -0.0921903 24.8669 -0.532132C24.7164 -1.48506 24.4138 -1.92578 23.9099 -1.92578C23.7741 -1.92578 23.2481 -1.79375 22.741 -1.63233C20.9584 -1.06504 19.39 -0.927932 17.71 -1.19268C16.521 -1.37998 16.0077 -1.51094 15.3546 -1.79326C14.7037 -2.07461 14.6311 -2.07647 14.324 -1.81953ZM18.484 1.4872C17.6647 1.64619 16.7389 2.31084 16.4185 2.97002C16.2977 3.21855 16.2793 3.61435 16.3038 5.43964L16.333 7.61328L16.6687 8.15078C17.7989 9.96064 20.385 10.0946 21.7376 8.41338C22.2588 7.76582 22.3457 7.30283 22.3457 5.17578C22.3457 3.02021 22.3021 2.85605 21.5742 2.27285C20.7107 1.58086 19.5378 1.28261 18.484 1.4872ZM15.9199 11.8956C13.4753 12.1118 11.5494 12.5013 10.9872 12.8932C10.8225 13.008 10.7764 13.1175 10.7975 13.3444C10.8542 13.9574 11.6426 14.2524 13.9463 14.5228C18.5505 15.0632 23.0774 14.954 26.2905 14.2251C27.5238 13.9453 27.7617 13.8125 27.7617 13.404C27.7617 12.8125 27.4597 12.6649 25.4668 12.2824C22.8385 11.7779 19.0066 11.6227 15.9199 11.8956ZM10.0908 27.1084C9.83838 27.2374 8.88828 27.8032 7.97949 28.3657C7.0707 28.9282 5.60682 29.8244 4.72639 30.3573C3.84597 30.8901 2.99804 31.4606 2.84208 31.625C2.48994 31.9962 2.24521 32.8041 0.714409 38.6504C0.489324 39.5098 0.223572 40.5205 0.123697 40.8965C-0.354748 42.6975 -0.424698 43.0552 -0.36861 43.4145C-0.297835 43.8677 0.0382337 44.3091 0.505939 44.5629C0.851829 44.7506 1.17652 44.7539 19.2474 44.7539H37.6369L38.0461 44.5342C38.7951 44.132 39.0243 43.3355 38.7417 42.1172C38.6168 41.5787 37.1285 36.015 36.7171 34.5488C36.5965 34.1191 36.409 33.4244 36.3002 33.0049C36.1915 32.5854 36.02 32.0934 35.9191 31.9114C35.7398 31.5882 34.9654 31.0066 33.7744 30.301C33.4715 30.1215 32.364 29.4534 31.3132 28.8162C28.4677 27.0908 28.2464 26.9805 27.6327 26.9805C26.8237 26.9805 26.6777 27.0782 23.6629 29.6375C22.9484 30.244 22.0396 31.0145 21.6434 31.3498C21.2471 31.6851 20.8317 32.0422 20.7203 32.1433C20.5834 32.2676 20.4093 32.7181 20.1823 33.5356C19.726 35.1794 19.6719 35.2768 19.2159 35.2798C18.8048 35.2823 18.7095 35.0795 18.1312 32.9716L17.9396 32.2731L16.1859 30.7743C13.169 28.196 12.0745 27.3008 11.7195 27.1213C11.1668 26.8418 10.6208 26.8375 10.0908 27.1084ZM22.2362 36.2822C22.2207 36.5104 22.221 37.0975 22.2369 37.5865L22.2658 38.4758L23.3247 38.7931C24.5025 39.146 24.4754 39.1472 25.9028 38.6819L26.8437 38.3753V37.1212V35.8672H24.5541H22.2645L22.2362 36.2822Z" fill="white"/>
</g>
<defs>
<clipPath id="clip0_53_57">
<rect width="40" height="40" fill="white"/>
</clipPath>
</defs>
</svg>
