<svg width="27" height="31" viewBox="0 0 27 31" fill="none" xmlns="http://www.w3.org/2000/svg">
<path fill-rule="evenodd" clip-rule="evenodd" d="M1.56374 0.136402C0.985167 0.312164 0.558547 0.631228 0.262012 1.11009L0.0418132 1.46557L0.0209066 15.147L0 28.8285L0.20506 29.2262C0.33178 29.472 0.538361 29.7135 0.745984 29.8584C1.44543 30.3465 1.20376 30.3309 8.67273 30.3724L15.4613 30.4102V29.1907V27.9712L13.9995 27.9461C12.7527 27.9248 12.5023 27.9006 12.2973 27.7817C11.9631 27.5877 11.7669 27.3136 11.7188 26.9737C11.66 26.5578 11.815 26.1934 12.262 25.6963L12.6539 25.2604L7.54939 25.2209C4.74192 25.1992 2.4358 25.1736 2.42483 25.1639C2.41385 25.1542 2.4048 20.723 2.4048 15.3167C2.4048 8.34082 2.43012 5.46309 2.49187 5.40448C2.60778 5.29448 19.1392 5.36457 19.2862 5.47563C19.3645 5.53486 19.3863 6.69122 19.3863 10.7956C19.3863 15.7611 19.3937 16.037 19.5265 15.9836C20.4287 15.6207 20.707 15.6698 21.2655 16.2902C21.4723 16.5199 21.6682 16.7079 21.7008 16.7079C21.7334 16.7079 21.7564 13.3126 21.7519 9.16276L21.7438 1.61761L21.5609 1.25985C21.3376 0.823182 20.9399 0.481009 20.3512 0.218886L19.9069 0.0211533L10.9756 0.00572097C2.36283 -0.00910326 2.0272 -0.0044661 1.56374 0.136402ZM9.66407 2.18808C9.2147 2.2419 9.05321 2.39676 9.05321 2.7736C9.05321 2.97635 9.10464 3.05662 9.31354 3.18031C9.55385 3.32247 9.68377 3.33266 11.0027 3.31221L12.4316 3.29009L12.6248 3.07677C12.9476 2.72046 12.8481 2.33396 12.3981 2.19598C12.1256 2.11236 10.3389 2.10726 9.66407 2.18808ZM10.2855 9.77094C10.0414 10.2623 9.67648 11.0063 9.47455 11.4244C8.94035 12.5303 8.96486 12.5045 8.38797 12.5634C8.11507 12.5912 7.47722 12.6786 6.97058 12.7576C6.46394 12.8367 5.80623 12.9244 5.50897 12.9525C5.21171 12.9807 4.90853 13.0454 4.83532 13.0962C4.63811 13.233 4.55368 13.1347 6.75038 15.3284C7.26752 15.8448 7.67467 16.2922 7.65497 16.3224C7.63534 16.3526 7.48827 17.2283 7.32831 18.2685C7.05164 20.0666 7.04435 20.1646 7.17948 20.2584C7.25766 20.3126 7.37509 20.357 7.44053 20.357C7.5059 20.357 8.28336 19.9635 9.16832 19.4827C10.0532 19.0019 10.8372 18.6085 10.9104 18.6085C10.9837 18.6085 11.6322 18.9224 12.3514 19.3061C14.5394 20.4734 14.6754 20.5205 14.7237 20.1282C14.7429 19.9731 14.2887 17.1652 14.1336 16.4799C14.0963 16.3153 14.2861 16.098 15.5501 14.8581C17.4812 12.9636 17.5258 13.1161 14.94 12.7725C13.7751 12.6177 12.9751 12.477 12.9087 12.4153C12.8484 12.3592 12.4443 11.6014 12.0106 10.7312C11.5768 9.86095 11.1668 9.08796 11.0996 9.0133C10.858 8.74548 10.7408 8.85457 10.2855 9.77094ZM19.7311 17.7116C19.4669 18.0585 19.1258 18.5134 18.9732 18.7225C18.0413 19.9994 17.6618 20.5285 16.3013 22.4476C15.4713 23.6183 14.4922 24.9956 14.1255 25.5081C13.7588 26.0207 13.4588 26.4734 13.4588 26.514C13.4588 26.5588 14.1421 26.5958 15.201 26.6082L16.9432 26.6288L16.9832 28.6889C17.0142 30.2791 17.0484 30.7776 17.1332 30.8745C17.2318 30.9871 17.5512 31 20.2326 31H23.2221L23.3467 30.831C23.4521 30.6883 23.4715 30.3458 23.4715 28.6264V26.5907H25.2358H27L26.8774 26.3656C26.7085 26.0557 23.7956 21.9444 22.233 19.8104C20.7555 17.7927 20.3159 17.1961 20.2664 17.1414C20.2362 17.108 19.9954 17.3646 19.7311 17.7116Z" fill="white"/>
</svg>
