<svg width="34" height="39" viewBox="0 0 34 39" fill="none" xmlns="http://www.w3.org/2000/svg">
<path fill-rule="evenodd" clip-rule="evenodd" d="M2.47464 0.120736C1.2167 0.431985 0.303213 1.37521 0.0767799 2.59639C0.00917613 2.96111 -0.0117133 8.04374 0.00600295 19.8025L0.0311233 36.491L0.225209 36.9267C0.626689 37.8277 1.30396 38.4284 2.35636 38.8171L2.85162 39L14.1336 38.9733C20.5189 38.9581 25.5796 38.9142 25.7935 38.8722C26.8224 38.6698 27.8246 37.9141 28.1997 37.0576L28.4124 36.5721L28.436 28.248L28.4597 19.924H26.6071H24.7545V26.4012C24.7545 31.144 24.7271 32.9336 24.6522 33.0847L24.55 33.2911L17.0501 33.3035C5.54528 33.3226 4.11732 33.3048 3.93205 33.1405C3.78741 33.0122 3.77842 32.2185 3.7763 19.2919C3.7748 9.64146 3.80222 5.53098 3.86911 5.41619C3.92138 5.32651 4.06346 5.21835 4.18483 5.1759C4.31202 5.13143 5.99921 5.09878 8.16782 5.0987C10.2371 5.0987 15.6486 5.07448 20.1933 5.04491L28.4564 4.99103V3.84447C28.4564 2.5571 28.3443 2.06082 27.9122 1.43524C27.4187 0.720713 26.634 0.244928 25.6823 0.0832275C25.3241 0.0223872 21.7144 -0.00337476 14.0513 0.000351806C4.74109 0.00480748 2.8644 0.0243315 2.47464 0.120736ZM14.0455 1.61152C13.149 1.80352 12.7447 2.51514 13.1058 3.26539C13.4868 4.05704 14.648 4.19606 15.3162 3.53014C15.5935 3.25372 15.6719 2.56658 15.4676 2.2034C15.2258 1.77355 14.5676 1.49965 14.0455 1.61152ZM17.7233 6.18605C17.4191 6.29047 17.0173 6.46902 16.8303 6.58276C15.9281 7.13154 15.1002 8.22099 14.8925 9.13311C14.768 9.67946 14.7605 15.1155 14.8832 15.7206C15.0822 16.7003 15.9547 17.8381 16.8718 18.3138L17.3287 18.5509L17.3671 19.7262C17.4025 20.8066 17.4214 20.9161 17.601 21.0812C17.7614 21.2287 17.8957 21.2607 18.3525 21.2607C19.0361 21.2607 19.3525 21.0943 21.0848 19.8228L22.2713 18.9519L26.1351 18.9507C30.3252 18.9494 30.648 18.9224 31.5603 18.4975C32.1115 18.2408 32.9761 17.5005 33.2785 17.0265C33.3998 16.8363 33.6008 16.4171 33.7251 16.0948C33.9473 15.5193 33.952 15.4602 33.989 12.778C34.0313 9.71462 33.9706 9.1869 33.4609 8.18875C33.0939 7.46993 32.2612 6.73045 31.3651 6.32757L30.704 6.03042L24.4901 6.01333L18.2762 5.99615L17.7233 6.18605ZM18.5847 9.7177C17.795 10.0561 17.2854 10.6936 17.2012 11.4484C17.108 12.2857 17.5654 13.0507 18.4191 13.4852C18.823 13.6907 18.9845 13.7257 19.5102 13.7214C20.6934 13.7117 21.5552 12.9787 21.7192 11.8423C21.8336 11.05 21.3033 10.1632 20.4857 9.77951C19.9535 9.52967 19.089 9.50156 18.5847 9.7177ZM29.9072 10.1118C28.6852 10.622 28.6619 12.2301 29.8683 12.7957C30.5998 13.1388 31.472 12.9254 31.9171 12.2943C32.8362 10.9915 31.4375 9.47288 29.9072 10.1118ZM24.5271 11.448C23.6845 11.6977 23.2143 12.2832 23.2175 13.0785C23.2236 14.5974 25.0258 15.4022 26.2551 14.4352C27.0547 13.8061 27.1844 12.8138 26.5683 12.0376C26.1517 11.5128 25.2181 11.2432 24.5271 11.448ZM11.9099 17.8564C9.70569 18.4261 8.91604 21.0336 10.4857 22.559C11.7114 23.7502 13.683 23.7735 14.9471 22.6116C15.5825 22.0277 15.7884 21.4937 15.7496 20.5316C15.7156 19.6946 15.5405 19.2823 14.9622 18.6784C14.2489 17.9336 12.9572 17.5858 11.9099 17.8564ZM11.7097 24.5178C11.5401 24.5348 11.1434 24.6253 10.8283 24.7187C8.51086 25.4055 6.70592 27.2392 6.27359 29.3458C6.09687 30.207 6.15521 30.5934 6.5054 30.8809L6.77669 31.1037H12.6409C19.0058 31.1037 18.872 31.1129 19.0964 30.6604C19.2514 30.3478 19.2251 29.7975 19.0201 29.0594C18.4104 26.8643 16.4217 25.0844 14.0281 24.5914C13.4457 24.4714 12.4752 24.4406 11.7097 24.5178ZM13.5079 34.8226C12.9379 35.0606 12.7234 35.406 12.7234 36.086C12.7234 36.7536 12.9205 37.0828 13.4764 37.3435C14.5691 37.8559 15.8368 37.0986 15.7423 35.9899C15.6547 34.9613 14.5537 34.3861 13.5079 34.8226Z" fill="white"/>
</svg>
