<svg width="50" height="50" viewBox="0 0 50 50" fill="none" xmlns="http://www.w3.org/2000/svg">
<path fill-rule="evenodd" clip-rule="evenodd" d="M21.631 0.17888C16.6184 0.899155 11.9939 3.01145 8.36712 6.23741C3.87473 10.2333 1.01312 15.51 0.184469 21.3253C-0.0650934 23.0761 -0.060693 26.6557 0.193145 28.4638C0.897704 33.483 3.5266 38.6133 7.29846 42.33C11.1923 46.1669 15.9501 48.556 21.2539 49.3377C30.7916 50.7433 40.3852 46.5429 45.7163 38.627C47.6684 35.7285 48.9437 32.6639 49.6018 29.2897C50.1116 26.6757 50.1329 23.4908 49.6588 20.7248C48.724 15.2711 45.6752 9.8447 41.4939 6.19278C38.4938 3.57256 34.3317 1.4404 30.4675 0.544235C28.1393 0.00424836 24.0287 -0.165605 21.631 0.17888ZM31.9404 17.684C30.5267 18.0535 29.198 19.0074 28.4356 20.2001C27.3628 21.8784 26.9317 25.1157 27.4843 27.3449C28.1618 30.0787 29.7345 31.6439 32.399 32.2367C33.9733 32.587 36.1525 32.2449 37.4094 31.4503C39.5828 30.0763 40.8253 26.816 40.3708 23.6793C39.8882 20.3485 38.2894 18.3572 35.5286 17.6483C34.5565 17.3987 32.9716 17.4144 31.9404 17.684ZM10.4597 17.78C9.82539 18.2333 9.81295 18.3723 9.81295 24.9895C9.81295 29.5033 9.85318 31.2363 9.96344 31.4783C10.2691 32.1492 10.8326 32.2914 13.186 32.2914C17.423 32.2914 19.1646 31.6143 20.1372 29.5883C21.0318 27.725 20.2101 25.3763 18.4395 24.736C18.1896 24.6456 17.9868 24.5406 17.9891 24.5027C17.9912 24.4647 18.2424 24.2824 18.5471 24.0974C19.9296 23.2589 20.3649 21.3138 19.547 19.63C19.1807 18.8757 18.5691 18.3448 17.5984 17.9383C16.9638 17.6725 16.7025 17.6498 13.8361 17.6106C11.1074 17.5734 10.7221 17.5926 10.4597 17.78ZM23.0813 17.9719L22.6368 18.362V24.8587C22.6368 32.0376 22.6057 31.7564 23.4391 32.1047C23.9466 32.3168 24.4292 32.2186 24.7956 31.8286L25.0885 31.5169L25.1257 25.2722C25.146 21.8377 25.1306 18.85 25.0911 18.633C24.9062 17.6146 23.8746 17.2753 23.0813 17.9719ZM32.3797 19.946C31.4842 20.3248 31.054 20.65 30.6826 21.2287C29.9789 22.3252 29.6733 24.3226 29.9218 26.2004C30.2565 28.7298 31.4164 29.992 33.5307 30.1278C34.8311 30.2113 35.6853 29.915 36.535 29.0853C37.4283 28.2132 37.7342 27.2829 37.8162 25.188C37.9025 22.9825 37.5221 21.6769 36.5086 20.7002C35.7609 19.9797 35.0706 19.7237 33.8892 19.7288C33.2345 19.7315 32.7076 19.8073 32.3797 19.946ZM12.4532 21.7464V23.6481L14.254 23.5939C16.3907 23.5297 16.7438 23.3931 17.2131 22.4503C17.5908 21.6916 17.5041 21.0988 16.932 20.5266C16.3851 19.9797 15.809 19.8462 13.9933 19.8454L12.4532 19.8447V21.7464ZM12.4532 27.8797V29.9026H14.0018C16.7346 29.9026 17.8433 29.3281 17.8549 27.9059C17.8606 27.1958 17.5209 26.6484 16.8282 26.2519C16.3307 25.967 16.1351 25.9389 14.3705 25.8996L12.4532 25.857V27.8797Z" fill="white"/>
</svg>
