<svg width="30" height="30" viewBox="0 0 30 30" fill="none" xmlns="http://www.w3.org/2000/svg">
<path d="M25 14.4445C25.0038 15.911 24.6612 17.3577 24 18.6667C23.216 20.2353 22.0108 21.5546 20.5194 22.477C19.0279 23.3993 17.3091 23.8882 15.5555 23.8889C14.089 23.8927 12.6423 23.5501 11.3333 22.8889L5 25L7.11111 18.6667C6.44992 17.3577 6.10729 15.911 6.11111 14.4445C6.11179 12.6909 6.60068 10.9721 7.52302 9.48064C8.44536 7.98919 9.76472 6.78399 11.3333 6.00003C12.6423 5.33884 14.089 4.99621 15.5555 5.00003H16.1111C18.427 5.1278 20.6145 6.10532 22.2546 7.74543C23.8947 9.38553 24.8722 11.573 25 13.8889V14.4445Z" stroke="black" stroke-width="2" stroke-linecap="round" stroke-linejoin="round"/>
</svg>
