<svg width="24" height="27" viewBox="0 0 24 27" fill="none" xmlns="http://www.w3.org/2000/svg">
<path d="M19.8108 15.8156L20.498 15.8698C20.4994 15.8517 20.5 15.8337 20.5 15.8156H19.8108ZM4.18919 15.8156H3.5C3.5 15.8337 3.50068 15.8518 3.50205 15.8698L4.18919 15.8156ZM12 20.3375C14.5897 20.3375 16.6173 20.1531 18.0393 19.515C18.7697 19.1873 19.3643 18.7302 19.7891 18.1006C20.2124 17.4734 20.4332 16.7251 20.498 15.8698L19.1236 15.7614C19.0726 16.4347 18.9071 16.928 18.6537 17.3034C18.402 17.6765 18.03 17.9831 17.4844 18.2279C16.3544 18.735 14.5923 18.9314 12 18.9314V20.3375ZM20.5 15.8156C20.5 14.1059 20.0111 13.2619 19.5836 12.4419C19.2019 11.7101 18.8287 10.936 18.8287 9.20862H17.4503C17.4503 11.2296 17.9126 12.2316 18.3666 13.1023C18.7748 13.8851 19.1216 14.4704 19.1216 15.8156H20.5ZM18.8287 9.20862C18.8287 5.95578 16.1572 2.2463 12 2.2463V3.6524C15.2773 3.6524 17.4503 6.60561 17.4503 9.20862H18.8287ZM12 2.2463C7.84286 2.2463 5.17138 5.95578 5.17138 9.20862H6.54975C6.54975 6.60561 8.72267 3.6524 12 3.6524V2.2463ZM5.17138 9.20862C5.17138 10.936 4.79806 11.7101 4.41641 12.4419C3.9889 13.2619 3.5 14.1059 3.5 15.8156H4.87838C4.87838 14.4704 5.22517 13.8851 5.63333 13.1023C6.08738 12.2316 6.54975 11.2296 6.54975 9.20862H5.17138ZM3.50205 15.8698C3.56703 16.7276 3.78785 17.4774 4.21127 18.1053C4.63634 18.7358 5.23134 19.1926 5.96196 19.5196C7.38404 20.1561 9.41155 20.3375 12 20.3375V18.9314C9.40738 18.9314 7.6457 18.7377 6.51576 18.232C5.97037 17.9879 5.59864 17.6818 5.34694 17.3085C5.09358 16.9327 4.92757 16.438 4.87633 15.7614L3.50205 15.8698Z" fill="#555555"/>
<path d="M14.7329 23.2429C14.971 22.94 14.9233 22.4975 14.6264 22.2546C14.3294 22.0117 13.8957 22.0604 13.6575 22.3633L14.7329 23.2429ZM10.2589 22.3639C10.0211 22.0607 9.58738 22.0116 9.29017 22.2541C8.99295 22.4967 8.94477 22.9391 9.18255 23.2423L10.2589 22.3639ZM13.6575 22.3633C13.1416 23.0197 12.5265 23.3015 11.9605 23.3032C11.3957 23.3049 10.7796 23.0279 10.2589 22.3639L9.18255 23.2423C9.92731 24.1919 10.9217 24.7124 11.9645 24.7093C13.006 24.7062 13.9953 24.1813 14.7329 23.2429L13.6575 22.3633Z" fill="#555555"/>
</svg>
